G04 #@! TF.GenerationSoftware,KiCad,Pcbnew,5.1.10-88a1d61d58~88~ubuntu20.04.1*
G04 #@! TF.CreationDate,2021-05-25T18:58:43-04:00*
G04 #@! TF.ProjectId,pinball-wpc-battery,70696e62-616c-46c2-9d77-70632d626174,rev?*
G04 #@! TF.SameCoordinates,Original*
G04 #@! TF.FileFunction,Legend,Top*
G04 #@! TF.FilePolarity,Positive*
%FSLAX46Y46*%
G04 Gerber Fmt 4.6, Leading zero omitted, Abs format (unit mm)*
G04 Created by KiCad (PCBNEW 5.1.10-88a1d61d58~88~ubuntu20.04.1) date 2021-05-25 18:58:43*
%MOMM*%
%LPD*%
G01*
G04 APERTURE LIST*
%ADD10C,0.150000*%
%ADD11C,0.120000*%
%ADD12C,0.100000*%
%ADD13O,1.600000X1.600000*%
%ADD14R,1.600000X1.600000*%
%ADD15C,2.500000*%
%ADD16R,2.170000X2.170000*%
%ADD17C,5.000000*%
%ADD18O,1.700000X1.700000*%
%ADD19R,1.700000X1.700000*%
%ADD20C,3.500000*%
%ADD21C,3.000000*%
%ADD22R,3.000000X3.000000*%
G04 APERTURE END LIST*
D10*
X109545380Y-93082714D02*
X108545380Y-93082714D01*
X109259666Y-92749380D01*
X108545380Y-92416047D01*
X109545380Y-92416047D01*
X109545380Y-91939857D02*
X108545380Y-91939857D01*
X108545380Y-91701761D01*
X108593000Y-91558904D01*
X108688238Y-91463666D01*
X108783476Y-91416047D01*
X108973952Y-91368428D01*
X109116809Y-91368428D01*
X109307285Y-91416047D01*
X109402523Y-91463666D01*
X109497761Y-91558904D01*
X109545380Y-91701761D01*
X109545380Y-91939857D01*
X108878714Y-90273190D02*
X109545380Y-90035095D01*
X108878714Y-89797000D01*
X109545380Y-88892238D02*
X109545380Y-89463666D01*
X109545380Y-89177952D02*
X108545380Y-89177952D01*
X108688238Y-89273190D01*
X108783476Y-89368428D01*
X108831095Y-89463666D01*
X109450142Y-88463666D02*
X109497761Y-88416047D01*
X109545380Y-88463666D01*
X109497761Y-88511285D01*
X109450142Y-88463666D01*
X109545380Y-88463666D01*
X108545380Y-87797000D02*
X108545380Y-87701761D01*
X108593000Y-87606523D01*
X108640619Y-87558904D01*
X108735857Y-87511285D01*
X108926333Y-87463666D01*
X109164428Y-87463666D01*
X109354904Y-87511285D01*
X109450142Y-87558904D01*
X109497761Y-87606523D01*
X109545380Y-87701761D01*
X109545380Y-87797000D01*
X109497761Y-87892238D01*
X109450142Y-87939857D01*
X109354904Y-87987476D01*
X109164428Y-88035095D01*
X108926333Y-88035095D01*
X108735857Y-87987476D01*
X108640619Y-87939857D01*
X108593000Y-87892238D01*
X108545380Y-87797000D01*
X106099428Y-102634142D02*
X107623428Y-102271285D01*
X106534857Y-101980999D01*
X107623428Y-101690714D01*
X106099428Y-101327857D01*
X107623428Y-100747285D02*
X106099428Y-100747285D01*
X106099428Y-100166714D01*
X106172000Y-100021571D01*
X106244571Y-99948999D01*
X106389714Y-99876428D01*
X106607428Y-99876428D01*
X106752571Y-99948999D01*
X106825142Y-100021571D01*
X106897714Y-100166714D01*
X106897714Y-100747285D01*
X107478285Y-98352428D02*
X107550857Y-98424999D01*
X107623428Y-98642714D01*
X107623428Y-98787857D01*
X107550857Y-99005571D01*
X107405714Y-99150714D01*
X107260571Y-99223285D01*
X106970285Y-99295857D01*
X106752571Y-99295857D01*
X106462285Y-99223285D01*
X106317142Y-99150714D01*
X106172000Y-99005571D01*
X106099428Y-98787857D01*
X106099428Y-98642714D01*
X106172000Y-98424999D01*
X106244571Y-98352428D01*
X107042857Y-97699285D02*
X107042857Y-96538142D01*
X107550857Y-95884999D02*
X107623428Y-95667285D01*
X107623428Y-95304428D01*
X107550857Y-95159285D01*
X107478285Y-95086714D01*
X107333142Y-95014142D01*
X107188000Y-95014142D01*
X107042857Y-95086714D01*
X106970285Y-95159285D01*
X106897714Y-95304428D01*
X106825142Y-95594714D01*
X106752571Y-95739857D01*
X106680000Y-95812428D01*
X106534857Y-95884999D01*
X106389714Y-95884999D01*
X106244571Y-95812428D01*
X106172000Y-95739857D01*
X106099428Y-95594714D01*
X106099428Y-95231857D01*
X106172000Y-95014142D01*
X106825142Y-92691857D02*
X106897714Y-92474142D01*
X106970285Y-92401571D01*
X107115428Y-92329000D01*
X107333142Y-92329000D01*
X107478285Y-92401571D01*
X107550857Y-92474142D01*
X107623428Y-92619285D01*
X107623428Y-93199857D01*
X106099428Y-93199857D01*
X106099428Y-92691857D01*
X106172000Y-92546714D01*
X106244571Y-92474142D01*
X106389714Y-92401571D01*
X106534857Y-92401571D01*
X106680000Y-92474142D01*
X106752571Y-92546714D01*
X106825142Y-92691857D01*
X106825142Y-93199857D01*
X107623428Y-91022714D02*
X106825142Y-91022714D01*
X106680000Y-91095285D01*
X106607428Y-91240428D01*
X106607428Y-91530714D01*
X106680000Y-91675857D01*
X107550857Y-91022714D02*
X107623428Y-91167857D01*
X107623428Y-91530714D01*
X107550857Y-91675857D01*
X107405714Y-91748428D01*
X107260571Y-91748428D01*
X107115428Y-91675857D01*
X107042857Y-91530714D01*
X107042857Y-91167857D01*
X106970285Y-91022714D01*
X106607428Y-90514714D02*
X106607428Y-89934142D01*
X106099428Y-90296999D02*
X107405714Y-90296999D01*
X107550857Y-90224428D01*
X107623428Y-90079285D01*
X107623428Y-89934142D01*
X106607428Y-89643857D02*
X106607428Y-89063285D01*
X106099428Y-89426142D02*
X107405714Y-89426142D01*
X107550857Y-89353571D01*
X107623428Y-89208428D01*
X107623428Y-89063285D01*
X107550857Y-87974714D02*
X107623428Y-88119857D01*
X107623428Y-88410142D01*
X107550857Y-88555285D01*
X107405714Y-88627857D01*
X106825142Y-88627857D01*
X106680000Y-88555285D01*
X106607428Y-88410142D01*
X106607428Y-88119857D01*
X106680000Y-87974714D01*
X106825142Y-87902142D01*
X106970285Y-87902142D01*
X107115428Y-88627857D01*
X107623428Y-87248999D02*
X106607428Y-87248999D01*
X106897714Y-87248999D02*
X106752571Y-87176428D01*
X106680000Y-87103857D01*
X106607428Y-86958714D01*
X106607428Y-86813571D01*
X106607428Y-86450714D02*
X107623428Y-86087857D01*
X106607428Y-85724999D02*
X107623428Y-86087857D01*
X107986285Y-86232999D01*
X108058857Y-86305571D01*
X108131428Y-86450714D01*
X106825142Y-83475285D02*
X106897714Y-83257571D01*
X106970285Y-83184999D01*
X107115428Y-83112428D01*
X107333142Y-83112428D01*
X107478285Y-83184999D01*
X107550857Y-83257571D01*
X107623428Y-83402714D01*
X107623428Y-83983285D01*
X106099428Y-83983285D01*
X106099428Y-83475285D01*
X106172000Y-83330142D01*
X106244571Y-83257571D01*
X106389714Y-83184999D01*
X106534857Y-83184999D01*
X106680000Y-83257571D01*
X106752571Y-83330142D01*
X106825142Y-83475285D01*
X106825142Y-83983285D01*
X107623428Y-82241571D02*
X107550857Y-82386714D01*
X107478285Y-82459285D01*
X107333142Y-82531857D01*
X106897714Y-82531857D01*
X106752571Y-82459285D01*
X106680000Y-82386714D01*
X106607428Y-82241571D01*
X106607428Y-82023857D01*
X106680000Y-81878714D01*
X106752571Y-81806142D01*
X106897714Y-81733571D01*
X107333142Y-81733571D01*
X107478285Y-81806142D01*
X107550857Y-81878714D01*
X107623428Y-82023857D01*
X107623428Y-82241571D01*
X107623428Y-80427285D02*
X106825142Y-80427285D01*
X106680000Y-80499857D01*
X106607428Y-80645000D01*
X106607428Y-80935285D01*
X106680000Y-81080428D01*
X107550857Y-80427285D02*
X107623428Y-80572428D01*
X107623428Y-80935285D01*
X107550857Y-81080428D01*
X107405714Y-81153000D01*
X107260571Y-81153000D01*
X107115428Y-81080428D01*
X107042857Y-80935285D01*
X107042857Y-80572428D01*
X106970285Y-80427285D01*
X107623428Y-79701571D02*
X106607428Y-79701571D01*
X106897714Y-79701571D02*
X106752571Y-79629000D01*
X106680000Y-79556428D01*
X106607428Y-79411285D01*
X106607428Y-79266142D01*
X107623428Y-78105000D02*
X106099428Y-78105000D01*
X107550857Y-78105000D02*
X107623428Y-78250142D01*
X107623428Y-78540428D01*
X107550857Y-78685571D01*
X107478285Y-78758142D01*
X107333142Y-78830714D01*
X106897714Y-78830714D01*
X106752571Y-78758142D01*
X106680000Y-78685571D01*
X106607428Y-78540428D01*
X106607428Y-78250142D01*
X106680000Y-78105000D01*
X203169761Y-98455238D02*
X203847095Y-100487238D01*
X204524428Y-98455238D01*
X205201761Y-99713142D02*
X206749952Y-99713142D01*
X205975857Y-100487238D02*
X205975857Y-98939047D01*
X204064809Y-79756000D02*
X203871285Y-79659238D01*
X203581000Y-79659238D01*
X203290714Y-79756000D01*
X203097190Y-79949523D01*
X203000428Y-80143047D01*
X202903666Y-80530095D01*
X202903666Y-80820380D01*
X203000428Y-81207428D01*
X203097190Y-81400952D01*
X203290714Y-81594476D01*
X203581000Y-81691238D01*
X203774523Y-81691238D01*
X204064809Y-81594476D01*
X204161571Y-81497714D01*
X204161571Y-80820380D01*
X203774523Y-80820380D01*
X205032428Y-81691238D02*
X205032428Y-79659238D01*
X206193571Y-81691238D01*
X206193571Y-79659238D01*
X207161190Y-81691238D02*
X207161190Y-79659238D01*
X207645000Y-79659238D01*
X207935285Y-79756000D01*
X208128809Y-79949523D01*
X208225571Y-80143047D01*
X208322333Y-80530095D01*
X208322333Y-80820380D01*
X208225571Y-81207428D01*
X208128809Y-81400952D01*
X207935285Y-81594476D01*
X207645000Y-81691238D01*
X207161190Y-81691238D01*
X127278190Y-73242714D02*
X124181809Y-73242714D01*
X127024190Y-90133714D02*
X123927809Y-90133714D01*
X125476000Y-88585523D02*
X125476000Y-91681904D01*
X126770190Y-104992714D02*
X123673809Y-104992714D01*
X199287190Y-73242714D02*
X196190809Y-73242714D01*
X197739000Y-71694523D02*
X197739000Y-74790904D01*
X199287190Y-90133714D02*
X196190809Y-90133714D01*
X199287190Y-104992714D02*
X196190809Y-104992714D01*
X197739000Y-103444523D02*
X197739000Y-106540904D01*
D11*
X179158000Y-110213000D02*
X179158000Y-107973000D01*
X179158000Y-107973000D02*
X174918000Y-107973000D01*
X174918000Y-107973000D02*
X174918000Y-110213000D01*
X174918000Y-110213000D02*
X179158000Y-110213000D01*
X179808000Y-109093000D02*
X179158000Y-109093000D01*
X174268000Y-109093000D02*
X174918000Y-109093000D01*
X178438000Y-110213000D02*
X178438000Y-107973000D01*
X178318000Y-110213000D02*
X178318000Y-107973000D01*
X178558000Y-110213000D02*
X178558000Y-107973000D01*
X151980000Y-110213000D02*
X151980000Y-107973000D01*
X151980000Y-107973000D02*
X147740000Y-107973000D01*
X147740000Y-107973000D02*
X147740000Y-110213000D01*
X147740000Y-110213000D02*
X151980000Y-110213000D01*
X152630000Y-109093000D02*
X151980000Y-109093000D01*
X147090000Y-109093000D02*
X147740000Y-109093000D01*
X151260000Y-110213000D02*
X151260000Y-107973000D01*
X151140000Y-110213000D02*
X151140000Y-107973000D01*
X151380000Y-110213000D02*
X151380000Y-107973000D01*
D12*
X169316400Y-103327200D02*
X172161200Y-103327200D01*
X177139600Y-103327200D02*
X174294800Y-103327200D01*
X169316400Y-100584000D02*
X169316400Y-103327200D01*
X177139600Y-100584000D02*
X177139600Y-103327200D01*
X184454800Y-90017600D02*
G75*
G03*
X184454800Y-90017600I-11226800J0D01*
G01*
X142138400Y-103454200D02*
X144983200Y-103454200D01*
X149961600Y-103454200D02*
X147116800Y-103454200D01*
X142138400Y-100711000D02*
X142138400Y-103454200D01*
X149961600Y-100711000D02*
X149961600Y-103454200D01*
X157276800Y-90144600D02*
G75*
G03*
X157276800Y-90144600I-11226800J0D01*
G01*
D11*
X204029000Y-83887000D02*
X205359000Y-83887000D01*
X204029000Y-85217000D02*
X204029000Y-83887000D01*
X204029000Y-86487000D02*
X206689000Y-86487000D01*
X206689000Y-86487000D02*
X206689000Y-96707000D01*
X204029000Y-86487000D02*
X204029000Y-96707000D01*
X204029000Y-96707000D02*
X206689000Y-96707000D01*
X190888000Y-114807000D02*
X190888000Y-66267000D01*
X190888000Y-66267000D02*
X132648000Y-66267000D01*
X132648000Y-114807000D02*
X132648000Y-66267000D01*
X190888000Y-114807000D02*
X132648000Y-114807000D01*
X191268000Y-115187000D02*
X188268000Y-115187000D01*
X191268000Y-112187000D02*
X191268000Y-115187000D01*
%LPC*%
D13*
X173228000Y-109093000D03*
D14*
X180848000Y-109093000D03*
D13*
X146050000Y-109093000D03*
D14*
X153670000Y-109093000D03*
D15*
X173228000Y-102550000D03*
D16*
X173228000Y-82550000D03*
D15*
X146050000Y-102677000D03*
D16*
X146050000Y-82677000D03*
D17*
X219868750Y-112712500D03*
X219868750Y-68262500D03*
X106362500Y-112712500D03*
X106362500Y-68262500D03*
D18*
X205359000Y-95377000D03*
X205359000Y-92837000D03*
X205359000Y-90297000D03*
X205359000Y-87757000D03*
D19*
X205359000Y-85217000D03*
D20*
X161768000Y-75537000D03*
X161768000Y-105537000D03*
D21*
X188468000Y-92737000D03*
D22*
X188468000Y-105537000D03*
M02*
