%FSLAX45Y45*%
G04 Gerber Fmt 4.5, Leading zero omitted, Abs format (unit mm)*
G04 Created by KiCad (PCBNEW 5.1.10-88a1d61d58~88~ubuntu20.04.1) date 2021-05-25 19:00:18*
%MOMM*%
%LPD*%
G01*
G04 APERTURE LIST*
%TA.AperFunction,Profile*%
%ADD10C,0.050000*%
%TD*%
%ADD11C,0.200000*%
%ADD12C,0.300000*%
G04 APERTURE END LIST*
D10*
X10160000Y-11747500D02*
X10160000Y-6350000D01*
X22542500Y-11747500D02*
X10160000Y-11747500D01*
X22542500Y-6350000D02*
X22542500Y-11747500D01*
X10160000Y-6350000D02*
X22542500Y-6350000D01*
D11*
X16001800Y-7378700D02*
X16351800Y-7728700D01*
X16351800Y-7378700D02*
X16001800Y-7728700D01*
X16001800Y-10378700D02*
X16351800Y-10728700D01*
X16351800Y-10378700D02*
X16001800Y-10728700D01*
X10886250Y-6826250D02*
G75*
G03*
X10886250Y-6826250I-250000J0D01*
G01*
X10886250Y-11271250D02*
G75*
G03*
X10886250Y-11271250I-250000J0D01*
G01*
X22236875Y-6826250D02*
G75*
G03*
X22236875Y-6826250I-250000J0D01*
G01*
X22236875Y-11271250D02*
G75*
G03*
X22236875Y-11271250I-250000J0D01*
G01*
D12*
X10443928Y-12215714D02*
X10443928Y-11915714D01*
X10515357Y-11915714D01*
X10558214Y-11930000D01*
X10586786Y-11958571D01*
X10601071Y-11987143D01*
X10615357Y-12044286D01*
X10615357Y-12087143D01*
X10601071Y-12144286D01*
X10586786Y-12172857D01*
X10558214Y-12201429D01*
X10515357Y-12215714D01*
X10443928Y-12215714D01*
X10743928Y-12215714D02*
X10743928Y-12015714D01*
X10743928Y-12072857D02*
X10758214Y-12044286D01*
X10772500Y-12030000D01*
X10801071Y-12015714D01*
X10829643Y-12015714D01*
X10929643Y-12215714D02*
X10929643Y-12015714D01*
X10929643Y-11915714D02*
X10915357Y-11930000D01*
X10929643Y-11944286D01*
X10943928Y-11930000D01*
X10929643Y-11915714D01*
X10929643Y-11944286D01*
X11115357Y-12215714D02*
X11086786Y-12201429D01*
X11072500Y-12172857D01*
X11072500Y-11915714D01*
X11272500Y-12215714D02*
X11243928Y-12201429D01*
X11229643Y-12172857D01*
X11229643Y-11915714D01*
X11615357Y-12215714D02*
X11615357Y-11915714D01*
X11715357Y-12130000D01*
X11815357Y-11915714D01*
X11815357Y-12215714D01*
X12086786Y-12215714D02*
X12086786Y-12058571D01*
X12072500Y-12030000D01*
X12043928Y-12015714D01*
X11986786Y-12015714D01*
X11958214Y-12030000D01*
X12086786Y-12201429D02*
X12058214Y-12215714D01*
X11986786Y-12215714D01*
X11958214Y-12201429D01*
X11943928Y-12172857D01*
X11943928Y-12144286D01*
X11958214Y-12115714D01*
X11986786Y-12101429D01*
X12058214Y-12101429D01*
X12086786Y-12087143D01*
X12229643Y-12015714D02*
X12229643Y-12315714D01*
X12229643Y-12030000D02*
X12258214Y-12015714D01*
X12315357Y-12015714D01*
X12343928Y-12030000D01*
X12358214Y-12044286D01*
X12372500Y-12072857D01*
X12372500Y-12158571D01*
X12358214Y-12187143D01*
X12343928Y-12201429D01*
X12315357Y-12215714D01*
X12258214Y-12215714D01*
X12229643Y-12201429D01*
X12501071Y-12187143D02*
X12515357Y-12201429D01*
X12501071Y-12215714D01*
X12486786Y-12201429D01*
X12501071Y-12187143D01*
X12501071Y-12215714D01*
X12501071Y-12030000D02*
X12515357Y-12044286D01*
X12501071Y-12058571D01*
X12486786Y-12044286D01*
X12501071Y-12030000D01*
X12501071Y-12058571D01*
X9807500Y-12535000D02*
X10157500Y-12885000D01*
X10157500Y-12535000D02*
X9807500Y-12885000D01*
X10415357Y-12545714D02*
X10601071Y-12545714D01*
X10501071Y-12660000D01*
X10543928Y-12660000D01*
X10572500Y-12674286D01*
X10586786Y-12688571D01*
X10601071Y-12717143D01*
X10601071Y-12788571D01*
X10586786Y-12817143D01*
X10572500Y-12831429D01*
X10543928Y-12845714D01*
X10458214Y-12845714D01*
X10429643Y-12831429D01*
X10415357Y-12817143D01*
X10729643Y-12817143D02*
X10743928Y-12831429D01*
X10729643Y-12845714D01*
X10715357Y-12831429D01*
X10729643Y-12817143D01*
X10729643Y-12845714D01*
X11015357Y-12545714D02*
X10872500Y-12545714D01*
X10858214Y-12688571D01*
X10872500Y-12674286D01*
X10901071Y-12660000D01*
X10972500Y-12660000D01*
X11001071Y-12674286D01*
X11015357Y-12688571D01*
X11029643Y-12717143D01*
X11029643Y-12788571D01*
X11015357Y-12817143D01*
X11001071Y-12831429D01*
X10972500Y-12845714D01*
X10901071Y-12845714D01*
X10872500Y-12831429D01*
X10858214Y-12817143D01*
X11215357Y-12545714D02*
X11243928Y-12545714D01*
X11272500Y-12560000D01*
X11286786Y-12574286D01*
X11301071Y-12602857D01*
X11315357Y-12660000D01*
X11315357Y-12731429D01*
X11301071Y-12788571D01*
X11286786Y-12817143D01*
X11272500Y-12831429D01*
X11243928Y-12845714D01*
X11215357Y-12845714D01*
X11186786Y-12831429D01*
X11172500Y-12817143D01*
X11158214Y-12788571D01*
X11143928Y-12731429D01*
X11143928Y-12660000D01*
X11158214Y-12602857D01*
X11172500Y-12574286D01*
X11186786Y-12560000D01*
X11215357Y-12545714D01*
X11501071Y-12545714D02*
X11529643Y-12545714D01*
X11558214Y-12560000D01*
X11572500Y-12574286D01*
X11586786Y-12602857D01*
X11601071Y-12660000D01*
X11601071Y-12731429D01*
X11586786Y-12788571D01*
X11572500Y-12817143D01*
X11558214Y-12831429D01*
X11529643Y-12845714D01*
X11501071Y-12845714D01*
X11472500Y-12831429D01*
X11458214Y-12817143D01*
X11443928Y-12788571D01*
X11429643Y-12731429D01*
X11429643Y-12660000D01*
X11443928Y-12602857D01*
X11458214Y-12574286D01*
X11472500Y-12560000D01*
X11501071Y-12545714D01*
X11729643Y-12845714D02*
X11729643Y-12645714D01*
X11729643Y-12674286D02*
X11743928Y-12660000D01*
X11772500Y-12645714D01*
X11815357Y-12645714D01*
X11843928Y-12660000D01*
X11858214Y-12688571D01*
X11858214Y-12845714D01*
X11858214Y-12688571D02*
X11872500Y-12660000D01*
X11901071Y-12645714D01*
X11943928Y-12645714D01*
X11972500Y-12660000D01*
X11986786Y-12688571D01*
X11986786Y-12845714D01*
X12129643Y-12845714D02*
X12129643Y-12645714D01*
X12129643Y-12674286D02*
X12143928Y-12660000D01*
X12172500Y-12645714D01*
X12215357Y-12645714D01*
X12243928Y-12660000D01*
X12258214Y-12688571D01*
X12258214Y-12845714D01*
X12258214Y-12688571D02*
X12272500Y-12660000D01*
X12301071Y-12645714D01*
X12343928Y-12645714D01*
X12372500Y-12660000D01*
X12386786Y-12688571D01*
X12386786Y-12845714D01*
X12972500Y-12531429D02*
X12715357Y-12917143D01*
X13358214Y-12545714D02*
X13386786Y-12545714D01*
X13415357Y-12560000D01*
X13429643Y-12574286D01*
X13443928Y-12602857D01*
X13458214Y-12660000D01*
X13458214Y-12731429D01*
X13443928Y-12788571D01*
X13429643Y-12817143D01*
X13415357Y-12831429D01*
X13386786Y-12845714D01*
X13358214Y-12845714D01*
X13329643Y-12831429D01*
X13315357Y-12817143D01*
X13301071Y-12788571D01*
X13286786Y-12731429D01*
X13286786Y-12660000D01*
X13301071Y-12602857D01*
X13315357Y-12574286D01*
X13329643Y-12560000D01*
X13358214Y-12545714D01*
X13586786Y-12817143D02*
X13601071Y-12831429D01*
X13586786Y-12845714D01*
X13572500Y-12831429D01*
X13586786Y-12817143D01*
X13586786Y-12845714D01*
X13886786Y-12845714D02*
X13715357Y-12845714D01*
X13801071Y-12845714D02*
X13801071Y-12545714D01*
X13772500Y-12588571D01*
X13743928Y-12617143D01*
X13715357Y-12631429D01*
X13986786Y-12545714D02*
X14172500Y-12545714D01*
X14072500Y-12660000D01*
X14115357Y-12660000D01*
X14143928Y-12674286D01*
X14158214Y-12688571D01*
X14172500Y-12717143D01*
X14172500Y-12788571D01*
X14158214Y-12817143D01*
X14143928Y-12831429D01*
X14115357Y-12845714D01*
X14029643Y-12845714D01*
X14001071Y-12831429D01*
X13986786Y-12817143D01*
X14272500Y-12545714D02*
X14472500Y-12545714D01*
X14343928Y-12845714D01*
X14629643Y-12674286D02*
X14601071Y-12660000D01*
X14586786Y-12645714D01*
X14572500Y-12617143D01*
X14572500Y-12602857D01*
X14586786Y-12574286D01*
X14601071Y-12560000D01*
X14629643Y-12545714D01*
X14686786Y-12545714D01*
X14715357Y-12560000D01*
X14729643Y-12574286D01*
X14743928Y-12602857D01*
X14743928Y-12617143D01*
X14729643Y-12645714D01*
X14715357Y-12660000D01*
X14686786Y-12674286D01*
X14629643Y-12674286D01*
X14601071Y-12688571D01*
X14586786Y-12702857D01*
X14572500Y-12731429D01*
X14572500Y-12788571D01*
X14586786Y-12817143D01*
X14601071Y-12831429D01*
X14629643Y-12845714D01*
X14686786Y-12845714D01*
X14715357Y-12831429D01*
X14729643Y-12817143D01*
X14743928Y-12788571D01*
X14743928Y-12731429D01*
X14729643Y-12702857D01*
X14715357Y-12688571D01*
X14686786Y-12674286D01*
X14858214Y-12545714D02*
X14858214Y-12602857D01*
X14972500Y-12545714D02*
X14972500Y-12602857D01*
X15415357Y-12960000D02*
X15401071Y-12945714D01*
X15372500Y-12902857D01*
X15358214Y-12874286D01*
X15343928Y-12831429D01*
X15329643Y-12760000D01*
X15329643Y-12702857D01*
X15343928Y-12631429D01*
X15358214Y-12588571D01*
X15372500Y-12560000D01*
X15401071Y-12517143D01*
X15415357Y-12502857D01*
X15515357Y-12574286D02*
X15529643Y-12560000D01*
X15558214Y-12545714D01*
X15629643Y-12545714D01*
X15658214Y-12560000D01*
X15672500Y-12574286D01*
X15686786Y-12602857D01*
X15686786Y-12631429D01*
X15672500Y-12674286D01*
X15501071Y-12845714D01*
X15686786Y-12845714D01*
X16043928Y-12845714D02*
X16043928Y-12545714D01*
X16172500Y-12845714D02*
X16172500Y-12688571D01*
X16158214Y-12660000D01*
X16129643Y-12645714D01*
X16086786Y-12645714D01*
X16058214Y-12660000D01*
X16043928Y-12674286D01*
X16358214Y-12845714D02*
X16329643Y-12831429D01*
X16315357Y-12817143D01*
X16301071Y-12788571D01*
X16301071Y-12702857D01*
X16315357Y-12674286D01*
X16329643Y-12660000D01*
X16358214Y-12645714D01*
X16401071Y-12645714D01*
X16429643Y-12660000D01*
X16443928Y-12674286D01*
X16458214Y-12702857D01*
X16458214Y-12788571D01*
X16443928Y-12817143D01*
X16429643Y-12831429D01*
X16401071Y-12845714D01*
X16358214Y-12845714D01*
X16629643Y-12845714D02*
X16601071Y-12831429D01*
X16586786Y-12802857D01*
X16586786Y-12545714D01*
X16858214Y-12831429D02*
X16829643Y-12845714D01*
X16772500Y-12845714D01*
X16743928Y-12831429D01*
X16729643Y-12802857D01*
X16729643Y-12688571D01*
X16743928Y-12660000D01*
X16772500Y-12645714D01*
X16829643Y-12645714D01*
X16858214Y-12660000D01*
X16872500Y-12688571D01*
X16872500Y-12717143D01*
X16729643Y-12745714D01*
X16986786Y-12831429D02*
X17015357Y-12845714D01*
X17072500Y-12845714D01*
X17101071Y-12831429D01*
X17115357Y-12802857D01*
X17115357Y-12788571D01*
X17101071Y-12760000D01*
X17072500Y-12745714D01*
X17029643Y-12745714D01*
X17001071Y-12731429D01*
X16986786Y-12702857D01*
X16986786Y-12688571D01*
X17001071Y-12660000D01*
X17029643Y-12645714D01*
X17072500Y-12645714D01*
X17101071Y-12660000D01*
X17215357Y-12960000D02*
X17229643Y-12945714D01*
X17258214Y-12902857D01*
X17272500Y-12874286D01*
X17286786Y-12831429D01*
X17301071Y-12760000D01*
X17301071Y-12702857D01*
X17286786Y-12631429D01*
X17272500Y-12588571D01*
X17258214Y-12560000D01*
X17229643Y-12517143D01*
X17215357Y-12502857D01*
X17758214Y-12960000D02*
X17743928Y-12945714D01*
X17715357Y-12902857D01*
X17701071Y-12874286D01*
X17686786Y-12831429D01*
X17672500Y-12760000D01*
X17672500Y-12702857D01*
X17686786Y-12631429D01*
X17701071Y-12588571D01*
X17715357Y-12560000D01*
X17743928Y-12517143D01*
X17758214Y-12502857D01*
X17872500Y-12645714D02*
X17872500Y-12845714D01*
X17872500Y-12674286D02*
X17886786Y-12660000D01*
X17915357Y-12645714D01*
X17958214Y-12645714D01*
X17986786Y-12660000D01*
X18001071Y-12688571D01*
X18001071Y-12845714D01*
X18186786Y-12845714D02*
X18158214Y-12831429D01*
X18143928Y-12817143D01*
X18129643Y-12788571D01*
X18129643Y-12702857D01*
X18143928Y-12674286D01*
X18158214Y-12660000D01*
X18186786Y-12645714D01*
X18229643Y-12645714D01*
X18258214Y-12660000D01*
X18272500Y-12674286D01*
X18286786Y-12702857D01*
X18286786Y-12788571D01*
X18272500Y-12817143D01*
X18258214Y-12831429D01*
X18229643Y-12845714D01*
X18186786Y-12845714D01*
X18372500Y-12645714D02*
X18486786Y-12645714D01*
X18415357Y-12545714D02*
X18415357Y-12802857D01*
X18429643Y-12831429D01*
X18458214Y-12845714D01*
X18486786Y-12845714D01*
X18815357Y-12645714D02*
X18815357Y-12945714D01*
X18815357Y-12660000D02*
X18843928Y-12645714D01*
X18901071Y-12645714D01*
X18929643Y-12660000D01*
X18943928Y-12674286D01*
X18958214Y-12702857D01*
X18958214Y-12788571D01*
X18943928Y-12817143D01*
X18929643Y-12831429D01*
X18901071Y-12845714D01*
X18843928Y-12845714D01*
X18815357Y-12831429D01*
X19129643Y-12845714D02*
X19101071Y-12831429D01*
X19086786Y-12802857D01*
X19086786Y-12545714D01*
X19372500Y-12845714D02*
X19372500Y-12688571D01*
X19358214Y-12660000D01*
X19329643Y-12645714D01*
X19272500Y-12645714D01*
X19243928Y-12660000D01*
X19372500Y-12831429D02*
X19343928Y-12845714D01*
X19272500Y-12845714D01*
X19243928Y-12831429D01*
X19229643Y-12802857D01*
X19229643Y-12774286D01*
X19243928Y-12745714D01*
X19272500Y-12731429D01*
X19343928Y-12731429D01*
X19372500Y-12717143D01*
X19472500Y-12645714D02*
X19586786Y-12645714D01*
X19515357Y-12545714D02*
X19515357Y-12802857D01*
X19529643Y-12831429D01*
X19558214Y-12845714D01*
X19586786Y-12845714D01*
X19801071Y-12831429D02*
X19772500Y-12845714D01*
X19715357Y-12845714D01*
X19686786Y-12831429D01*
X19672500Y-12802857D01*
X19672500Y-12688571D01*
X19686786Y-12660000D01*
X19715357Y-12645714D01*
X19772500Y-12645714D01*
X19801071Y-12660000D01*
X19815357Y-12688571D01*
X19815357Y-12717143D01*
X19672500Y-12745714D01*
X20072500Y-12845714D02*
X20072500Y-12545714D01*
X20072500Y-12831429D02*
X20043928Y-12845714D01*
X19986786Y-12845714D01*
X19958214Y-12831429D01*
X19943928Y-12817143D01*
X19929643Y-12788571D01*
X19929643Y-12702857D01*
X19943928Y-12674286D01*
X19958214Y-12660000D01*
X19986786Y-12645714D01*
X20043928Y-12645714D01*
X20072500Y-12660000D01*
X20186786Y-12960000D02*
X20201071Y-12945714D01*
X20229643Y-12902857D01*
X20243928Y-12874286D01*
X20258214Y-12831429D01*
X20272500Y-12760000D01*
X20272500Y-12702857D01*
X20258214Y-12631429D01*
X20243928Y-12588571D01*
X20229643Y-12560000D01*
X20201071Y-12517143D01*
X20186786Y-12502857D01*
X10157500Y-13190000D02*
G75*
G03*
X10157500Y-13190000I-250000J0D01*
G01*
X10586786Y-13025714D02*
X10443928Y-13025714D01*
X10429643Y-13168571D01*
X10443928Y-13154286D01*
X10472500Y-13140000D01*
X10543928Y-13140000D01*
X10572500Y-13154286D01*
X10586786Y-13168571D01*
X10601071Y-13197143D01*
X10601071Y-13268571D01*
X10586786Y-13297143D01*
X10572500Y-13311429D01*
X10543928Y-13325714D01*
X10472500Y-13325714D01*
X10443928Y-13311429D01*
X10429643Y-13297143D01*
X10729643Y-13297143D02*
X10743928Y-13311429D01*
X10729643Y-13325714D01*
X10715357Y-13311429D01*
X10729643Y-13297143D01*
X10729643Y-13325714D01*
X10929643Y-13025714D02*
X10958214Y-13025714D01*
X10986786Y-13040000D01*
X11001071Y-13054286D01*
X11015357Y-13082857D01*
X11029643Y-13140000D01*
X11029643Y-13211429D01*
X11015357Y-13268571D01*
X11001071Y-13297143D01*
X10986786Y-13311429D01*
X10958214Y-13325714D01*
X10929643Y-13325714D01*
X10901071Y-13311429D01*
X10886786Y-13297143D01*
X10872500Y-13268571D01*
X10858214Y-13211429D01*
X10858214Y-13140000D01*
X10872500Y-13082857D01*
X10886786Y-13054286D01*
X10901071Y-13040000D01*
X10929643Y-13025714D01*
X11215357Y-13025714D02*
X11243928Y-13025714D01*
X11272500Y-13040000D01*
X11286786Y-13054286D01*
X11301071Y-13082857D01*
X11315357Y-13140000D01*
X11315357Y-13211429D01*
X11301071Y-13268571D01*
X11286786Y-13297143D01*
X11272500Y-13311429D01*
X11243928Y-13325714D01*
X11215357Y-13325714D01*
X11186786Y-13311429D01*
X11172500Y-13297143D01*
X11158214Y-13268571D01*
X11143928Y-13211429D01*
X11143928Y-13140000D01*
X11158214Y-13082857D01*
X11172500Y-13054286D01*
X11186786Y-13040000D01*
X11215357Y-13025714D01*
X11501071Y-13025714D02*
X11529643Y-13025714D01*
X11558214Y-13040000D01*
X11572500Y-13054286D01*
X11586786Y-13082857D01*
X11601071Y-13140000D01*
X11601071Y-13211429D01*
X11586786Y-13268571D01*
X11572500Y-13297143D01*
X11558214Y-13311429D01*
X11529643Y-13325714D01*
X11501071Y-13325714D01*
X11472500Y-13311429D01*
X11458214Y-13297143D01*
X11443928Y-13268571D01*
X11429643Y-13211429D01*
X11429643Y-13140000D01*
X11443928Y-13082857D01*
X11458214Y-13054286D01*
X11472500Y-13040000D01*
X11501071Y-13025714D01*
X11729643Y-13325714D02*
X11729643Y-13125714D01*
X11729643Y-13154286D02*
X11743928Y-13140000D01*
X11772500Y-13125714D01*
X11815357Y-13125714D01*
X11843928Y-13140000D01*
X11858214Y-13168571D01*
X11858214Y-13325714D01*
X11858214Y-13168571D02*
X11872500Y-13140000D01*
X11901071Y-13125714D01*
X11943928Y-13125714D01*
X11972500Y-13140000D01*
X11986786Y-13168571D01*
X11986786Y-13325714D01*
X12129643Y-13325714D02*
X12129643Y-13125714D01*
X12129643Y-13154286D02*
X12143928Y-13140000D01*
X12172500Y-13125714D01*
X12215357Y-13125714D01*
X12243928Y-13140000D01*
X12258214Y-13168571D01*
X12258214Y-13325714D01*
X12258214Y-13168571D02*
X12272500Y-13140000D01*
X12301071Y-13125714D01*
X12343928Y-13125714D01*
X12372500Y-13140000D01*
X12386786Y-13168571D01*
X12386786Y-13325714D01*
X12972500Y-13011429D02*
X12715357Y-13397143D01*
X13358214Y-13025714D02*
X13386786Y-13025714D01*
X13415357Y-13040000D01*
X13429643Y-13054286D01*
X13443928Y-13082857D01*
X13458214Y-13140000D01*
X13458214Y-13211429D01*
X13443928Y-13268571D01*
X13429643Y-13297143D01*
X13415357Y-13311429D01*
X13386786Y-13325714D01*
X13358214Y-13325714D01*
X13329643Y-13311429D01*
X13315357Y-13297143D01*
X13301071Y-13268571D01*
X13286786Y-13211429D01*
X13286786Y-13140000D01*
X13301071Y-13082857D01*
X13315357Y-13054286D01*
X13329643Y-13040000D01*
X13358214Y-13025714D01*
X13586786Y-13297143D02*
X13601071Y-13311429D01*
X13586786Y-13325714D01*
X13572500Y-13311429D01*
X13586786Y-13297143D01*
X13586786Y-13325714D01*
X13886786Y-13325714D02*
X13715357Y-13325714D01*
X13801071Y-13325714D02*
X13801071Y-13025714D01*
X13772500Y-13068571D01*
X13743928Y-13097143D01*
X13715357Y-13111429D01*
X14029643Y-13325714D02*
X14086786Y-13325714D01*
X14115357Y-13311429D01*
X14129643Y-13297143D01*
X14158214Y-13254286D01*
X14172500Y-13197143D01*
X14172500Y-13082857D01*
X14158214Y-13054286D01*
X14143928Y-13040000D01*
X14115357Y-13025714D01*
X14058214Y-13025714D01*
X14029643Y-13040000D01*
X14015357Y-13054286D01*
X14001071Y-13082857D01*
X14001071Y-13154286D01*
X14015357Y-13182857D01*
X14029643Y-13197143D01*
X14058214Y-13211429D01*
X14115357Y-13211429D01*
X14143928Y-13197143D01*
X14158214Y-13182857D01*
X14172500Y-13154286D01*
X14429643Y-13025714D02*
X14372500Y-13025714D01*
X14343928Y-13040000D01*
X14329643Y-13054286D01*
X14301071Y-13097143D01*
X14286786Y-13154286D01*
X14286786Y-13268571D01*
X14301071Y-13297143D01*
X14315357Y-13311429D01*
X14343928Y-13325714D01*
X14401071Y-13325714D01*
X14429643Y-13311429D01*
X14443928Y-13297143D01*
X14458214Y-13268571D01*
X14458214Y-13197143D01*
X14443928Y-13168571D01*
X14429643Y-13154286D01*
X14401071Y-13140000D01*
X14343928Y-13140000D01*
X14315357Y-13154286D01*
X14301071Y-13168571D01*
X14286786Y-13197143D01*
X14601071Y-13325714D02*
X14658214Y-13325714D01*
X14686786Y-13311429D01*
X14701071Y-13297143D01*
X14729643Y-13254286D01*
X14743928Y-13197143D01*
X14743928Y-13082857D01*
X14729643Y-13054286D01*
X14715357Y-13040000D01*
X14686786Y-13025714D01*
X14629643Y-13025714D01*
X14601071Y-13040000D01*
X14586786Y-13054286D01*
X14572500Y-13082857D01*
X14572500Y-13154286D01*
X14586786Y-13182857D01*
X14601071Y-13197143D01*
X14629643Y-13211429D01*
X14686786Y-13211429D01*
X14715357Y-13197143D01*
X14729643Y-13182857D01*
X14743928Y-13154286D01*
X14858214Y-13025714D02*
X14858214Y-13082857D01*
X14972500Y-13025714D02*
X14972500Y-13082857D01*
X15415357Y-13440000D02*
X15401071Y-13425714D01*
X15372500Y-13382857D01*
X15358214Y-13354286D01*
X15343928Y-13311429D01*
X15329643Y-13240000D01*
X15329643Y-13182857D01*
X15343928Y-13111429D01*
X15358214Y-13068571D01*
X15372500Y-13040000D01*
X15401071Y-12997143D01*
X15415357Y-12982857D01*
X15658214Y-13125714D02*
X15658214Y-13325714D01*
X15586786Y-13011429D02*
X15515357Y-13225714D01*
X15701071Y-13225714D01*
X16043928Y-13325714D02*
X16043928Y-13025714D01*
X16172500Y-13325714D02*
X16172500Y-13168571D01*
X16158214Y-13140000D01*
X16129643Y-13125714D01*
X16086786Y-13125714D01*
X16058214Y-13140000D01*
X16043928Y-13154286D01*
X16358214Y-13325714D02*
X16329643Y-13311429D01*
X16315357Y-13297143D01*
X16301071Y-13268571D01*
X16301071Y-13182857D01*
X16315357Y-13154286D01*
X16329643Y-13140000D01*
X16358214Y-13125714D01*
X16401071Y-13125714D01*
X16429643Y-13140000D01*
X16443928Y-13154286D01*
X16458214Y-13182857D01*
X16458214Y-13268571D01*
X16443928Y-13297143D01*
X16429643Y-13311429D01*
X16401071Y-13325714D01*
X16358214Y-13325714D01*
X16629643Y-13325714D02*
X16601071Y-13311429D01*
X16586786Y-13282857D01*
X16586786Y-13025714D01*
X16858214Y-13311429D02*
X16829643Y-13325714D01*
X16772500Y-13325714D01*
X16743928Y-13311429D01*
X16729643Y-13282857D01*
X16729643Y-13168571D01*
X16743928Y-13140000D01*
X16772500Y-13125714D01*
X16829643Y-13125714D01*
X16858214Y-13140000D01*
X16872500Y-13168571D01*
X16872500Y-13197143D01*
X16729643Y-13225714D01*
X16986786Y-13311429D02*
X17015357Y-13325714D01*
X17072500Y-13325714D01*
X17101071Y-13311429D01*
X17115357Y-13282857D01*
X17115357Y-13268571D01*
X17101071Y-13240000D01*
X17072500Y-13225714D01*
X17029643Y-13225714D01*
X17001071Y-13211429D01*
X16986786Y-13182857D01*
X16986786Y-13168571D01*
X17001071Y-13140000D01*
X17029643Y-13125714D01*
X17072500Y-13125714D01*
X17101071Y-13140000D01*
X17215357Y-13440000D02*
X17229643Y-13425714D01*
X17258214Y-13382857D01*
X17272500Y-13354286D01*
X17286786Y-13311429D01*
X17301071Y-13240000D01*
X17301071Y-13182857D01*
X17286786Y-13111429D01*
X17272500Y-13068571D01*
X17258214Y-13040000D01*
X17229643Y-12997143D01*
X17215357Y-12982857D01*
X17758214Y-13440000D02*
X17743928Y-13425714D01*
X17715357Y-13382857D01*
X17701071Y-13354286D01*
X17686786Y-13311429D01*
X17672500Y-13240000D01*
X17672500Y-13182857D01*
X17686786Y-13111429D01*
X17701071Y-13068571D01*
X17715357Y-13040000D01*
X17743928Y-12997143D01*
X17758214Y-12982857D01*
X17872500Y-13125714D02*
X17872500Y-13325714D01*
X17872500Y-13154286D02*
X17886786Y-13140000D01*
X17915357Y-13125714D01*
X17958214Y-13125714D01*
X17986786Y-13140000D01*
X18001071Y-13168571D01*
X18001071Y-13325714D01*
X18186786Y-13325714D02*
X18158214Y-13311429D01*
X18143928Y-13297143D01*
X18129643Y-13268571D01*
X18129643Y-13182857D01*
X18143928Y-13154286D01*
X18158214Y-13140000D01*
X18186786Y-13125714D01*
X18229643Y-13125714D01*
X18258214Y-13140000D01*
X18272500Y-13154286D01*
X18286786Y-13182857D01*
X18286786Y-13268571D01*
X18272500Y-13297143D01*
X18258214Y-13311429D01*
X18229643Y-13325714D01*
X18186786Y-13325714D01*
X18372500Y-13125714D02*
X18486786Y-13125714D01*
X18415357Y-13025714D02*
X18415357Y-13282857D01*
X18429643Y-13311429D01*
X18458214Y-13325714D01*
X18486786Y-13325714D01*
X18815357Y-13125714D02*
X18815357Y-13425714D01*
X18815357Y-13140000D02*
X18843928Y-13125714D01*
X18901071Y-13125714D01*
X18929643Y-13140000D01*
X18943928Y-13154286D01*
X18958214Y-13182857D01*
X18958214Y-13268571D01*
X18943928Y-13297143D01*
X18929643Y-13311429D01*
X18901071Y-13325714D01*
X18843928Y-13325714D01*
X18815357Y-13311429D01*
X19129643Y-13325714D02*
X19101071Y-13311429D01*
X19086786Y-13282857D01*
X19086786Y-13025714D01*
X19372500Y-13325714D02*
X19372500Y-13168571D01*
X19358214Y-13140000D01*
X19329643Y-13125714D01*
X19272500Y-13125714D01*
X19243928Y-13140000D01*
X19372500Y-13311429D02*
X19343928Y-13325714D01*
X19272500Y-13325714D01*
X19243928Y-13311429D01*
X19229643Y-13282857D01*
X19229643Y-13254286D01*
X19243928Y-13225714D01*
X19272500Y-13211429D01*
X19343928Y-13211429D01*
X19372500Y-13197143D01*
X19472500Y-13125714D02*
X19586786Y-13125714D01*
X19515357Y-13025714D02*
X19515357Y-13282857D01*
X19529643Y-13311429D01*
X19558214Y-13325714D01*
X19586786Y-13325714D01*
X19801071Y-13311429D02*
X19772500Y-13325714D01*
X19715357Y-13325714D01*
X19686786Y-13311429D01*
X19672500Y-13282857D01*
X19672500Y-13168571D01*
X19686786Y-13140000D01*
X19715357Y-13125714D01*
X19772500Y-13125714D01*
X19801071Y-13140000D01*
X19815357Y-13168571D01*
X19815357Y-13197143D01*
X19672500Y-13225714D01*
X20072500Y-13325714D02*
X20072500Y-13025714D01*
X20072500Y-13311429D02*
X20043928Y-13325714D01*
X19986786Y-13325714D01*
X19958214Y-13311429D01*
X19943928Y-13297143D01*
X19929643Y-13268571D01*
X19929643Y-13182857D01*
X19943928Y-13154286D01*
X19958214Y-13140000D01*
X19986786Y-13125714D01*
X20043928Y-13125714D01*
X20072500Y-13140000D01*
X20186786Y-13440000D02*
X20201071Y-13425714D01*
X20229643Y-13382857D01*
X20243928Y-13354286D01*
X20258214Y-13311429D01*
X20272500Y-13240000D01*
X20272500Y-13182857D01*
X20258214Y-13111429D01*
X20243928Y-13068571D01*
X20229643Y-13040000D01*
X20201071Y-12997143D01*
X20186786Y-12982857D01*
M02*
